<mxfile host="app.diagrams.net" modified="2024-06-27T16:14:45.852Z" agent="Mozilla/5.0 (Windows NT 10.0; Win64; x64) AppleWebKit/537.36 (KHTML, like Gecko) Chrome/126.0.0.0 Safari/537.36" version="24.6.3" etag="nII5x2JBkRNheGE_loz8" type="github">
  <diagram name="PÃ¡gina-1" id="WRq5dIG0SAhDdjkdgISw">
    <mxGraphModel>
      <root>
        <mxCell id="0" />
        <mxCell id="1" parent="0" />
      </root>
    </mxGraphModel>
  </diagram>
</mxfile>
